<svg width="25" height="30" fill="none" xmlns="http://www.w3.org/2000/svg"><path d="M13.794 2.61C15.809.014 18.61 0 18.61 0s.417 2.443-1.585 4.796c-2.137 2.512-4.567 2.1-4.567 2.1s-.456-1.975 1.336-4.285zm-1.08 5.998c1.037 0 2.96-1.394 5.465-1.394 4.31 0 6.006 3 6.006 3s-3.316 1.66-3.316 5.684c0 4.54 4.131 6.106 4.131 6.106s-2.888 7.952-6.789 7.952c-1.792 0-3.185-1.181-5.072-1.181-1.924 0-3.833 1.225-5.077 1.225C4.5 30 0 22.457 0 16.393c0-5.966 3.81-9.095 7.382-9.095 2.323 0 4.125 1.31 5.332 1.31z" fill="#000"/></svg>